<?xml version="1.0" standalone="no"?>
<!DOCTYPE svg PUBLIC "-//W3C//DTD SVG 20010904//EN"
 "http://www.w3.org/TR/2001/REC-SVG-20010904/DTD/svg10.dtd">
<svg version="1.0" xmlns="http://www.w3.org/2000/svg"
 width="100.000000pt" height="100.000000pt" viewBox="0 0 100.000000 100.000000"
 preserveAspectRatio="xMidYMid meet">

<g transform="translate(0.000000,100.000000) scale(0.100000,-0.100000)"
fill="#000000" stroke="none">
<path d="M399 949 c-124 -29 -250 -129 -308 -243 -146 -287 53 -640 374 -663
87 -6 188 16 260 57 68 39 155 131 188 200 126 260 -25 579 -304 645 -70 16
-153 18 -210 4z m254 -60 c107 -40 194 -128 239 -239 31 -78 31 -222 0 -300
-59 -146 -186 -245 -341 -266 l-51 -7 0 423 0 423 51 -7 c28 -4 74 -16 102
-27z"/>
</g>
</svg>
