<?xml version="1.0" standalone="no"?>
<!DOCTYPE svg PUBLIC "-//W3C//DTD SVG 20010904//EN"
 "http://www.w3.org/TR/2001/REC-SVG-20010904/DTD/svg10.dtd">
<svg version="1.0" xmlns="http://www.w3.org/2000/svg"
 width="320.000000pt" height="320.000000pt" viewBox="0 0 320.000000 320.000000"
 preserveAspectRatio="xMidYMid meet">

<g transform="translate(0.000000,320.000000) scale(0.100000,-0.100000)"
fill="#000000" stroke="none">
<path d="M1198 3059 c-137 -17 -266 -56 -393 -118 -136 -68 -218 -127 -322
-233 -105 -106 -156 -178 -223 -313 -145 -291 -165 -619 -58 -923 79 -227 223
-422 416 -567 408 -306 984 -315 1402 -21 l65 46 390 -390 c259 -258 399 -391
418 -395 95 -24 186 67 162 162 -4 19 -137 159 -395 418 l-390 390 46 65 c294
418 285 994 -21 1402 -180 239 -447 408 -734 462 -105 20 -268 27 -363 15z
m367 -289 c311 -81 562 -319 658 -625 104 -331 15 -689 -232 -936 -160 -160
-356 -251 -593 -274 -133 -13 -346 29 -473 92 -302 152 -501 450 -522 784 -29
469 298 885 766 974 104 20 291 13 396 -15z"/>
</g>
</svg>
